*******************************************************************************
          Zombies and Demons - Samurai Sword Apocalypse (2009) DVDRip
*******************************************************************************

-------------------------------------------------------------------------------
                              General Information
-------------------------------------------------------------------------------
Type.................: Movie



Video Format.........: AVI
Video Bitrate........: 2138
Resolution...........: 852 x 480
Color................: 8 bit
FPS..................: 23.976
Source...............: DVD 16x9
Original Format......: NTSC
Genre................: Action / Drama / Horror
IMDb Rating..........: 5.0
Movie Information....: http://www.imdb.com/title/tt1316078/

-------------------------------------------------------------------------------
                               Post Information
-------------------------------------------------------------------------------
Posted by............: RadioResearch
Posted on............: 4/20/2013

-------------------------------------------------------------------------------
                                 Release Notes
-------------------------------------------------------------------------------
SEEDBOX SUPPORTED!!

ORIGINAL TITLE:  THE SKY HAS FALLEN

Within a couple of hours, a new disease wipes out almost all of mankind. Trying 
to avoid infection, people flee to remote locations, but they start seeing 
mysterious black figures, carrying away the dead and experimenting on them. Now, 
Lance and Rachel, two survivors determined to fight back, must kill the leader 
of these creatures before the rest of humanity disappears.

Well, alright then!  No idea why this was re-released under the new name, but 
the new name is not even listed on IMDB.  No worries, I tracked down the 
original data. :-)  It appears to have won a lot of awards, and I haven't even 
watched it yet.


Enjoy!

RadioResearch

General
Complete name                            : G:Zombies and Demons - Samurai Sword 
Apocalypse (2009) DVDRipTitle 10.avi
Format                                   : AVI
Format/Info                              : Audio Video Interleave
Format profile                           : OpenDML
File size                                : 1.08 GiB
Duration                                 : 1h 12mn
Overall bit rate mode                    : Variable
Overall bit rate                         : 2 138 Kbps
Writing application                      : Lavf51.12.1

Video
ID                                       : 0
Format                                   : AVC
Format/Info                              : Advanced Video Codec
Format profile                           : Baseline@L3.0
Format settings, CABAC                   : No
Format settings, ReFrames                : 1 frame
Format settings, GOP                     : M=1, N=12
Codec ID                                 : H264
Duration                                 : 1h 12mn
Bit rate mode                            : Variable
Bit rate                                 : 1 994 Kbps
Maximum bit rate                         : 3 000 Kbps
Width                                    : 852 pixels
Height                                   : 480 pixels
Display aspect ratio                     : 16:9
Frame rate                               : 23.976 fps
Original frame rate                      : 24.000 fps
Color space                              : YUV
Chroma subsampling                       : 4:2:0
Bit depth                                : 8 bits
Scan type                                : Progressive
Bits/(Pixel*Frame)                       : 0.203
Stream size                              : 1.01 GiB (93%)

Audio
ID                                       : 1
Format                                   : MPEG Audio
Format version                           : Version 1
Format profile                           : Layer 3
Mode                                     : Joint stereo
Mode extension                           : MS Stereo
Codec ID                                 : 55
Codec ID/Hint                            : MP3
Duration                                 : 1h 12mn
Bit rate mode                            : Constant
Bit rate                                 : 128 Kbps
Channel(s)                               : 2 channels
Sampling rate                            : 44.1 KHz
Compression mode                         : Lossy
Stream size                              : 66.4 MiB (6%)
Alignment                                : Aligned on interleaves
Interleave, duration                     : 26 ms (0.63 video frame)
Interleave, preload duration             : 26 ms
Writing library                          : LAME3.97




-------------------------------------------------------------------------------
Generated with Cool NFO Creator - http://fly.to/coolbeans
-------------------------------------------------------------------------------
